<?xml version="1.0" encoding="utf-8"?>
<!-- Generator: Adobe Illustrator 27.5.0, SVG Export Plug-In . SVG Version: 6.00 Build 0)  -->
<svg version="1.1" xmlns="http://www.w3.org/2000/svg" xmlns:xlink="http://www.w3.org/1999/xlink" x="0px" y="0px"
	 viewBox="0 0 1200 1200" style="enable-background:new 0 0 1200 1200;" xml:space="preserve">
<g id="bg">
	<rect x="0" style="fill:#E6E6E6;" width="1200" height="1200"/>
</g>
<g id="object">
	<g>
		<path d="M259.634,867.84c6.414,10.845,16.394,18.39,28.124,22.792c6.624,2.486,13.597,3.474,20.549,4.568
			c7.597,1.196,15.207,2.307,22.828,3.336c30.202,4.078,60.559,6.839,90.974,8.709c60.753,3.736,121.67,3.584,182.495,2.115
			c30.333-0.733,60.657-1.796,90.979-2.877c30.918-1.102,61.768-3.744,92.699-4.503c39.432-0.967,81.319-0.974,118.654-15.619
			c7.088-2.781,13.912-6.29,20.119-10.715c10.238-7.298,20.067-14.579,27.565-24.91c13.011-17.925,18.721-40.45,7.666-60.793
			c-5.361-9.865-13.434-18.051-23.069-23.78c-10.712-6.369-24.943-11.299-37.565-9.576c-7.019,0.958-10.152,5.554-14.722,10.279
			c-3.9,4.032-8.594,7.047-13.768,9.177c-11.141,4.587-23.377,5.257-35.282,5.354c-30.62,0.25-61.038-4.031-91.576-5.583
			c-61.568-3.13-123.137,3.812-184.6,6.386c-61.772,2.587-123.649,2.664-185.427,0.236c-13.978-0.549-27.945-1.478-41.925-1.943
			c-10.552-0.351-21.405-0.043-31.475,3.458c-10.685,3.715-18.344,11.195-25.583,19.575c-7.816,9.048-15.522,18.869-19.818,30.151
			C253.137,845.074,253.683,857.136,259.634,867.84c1.666,2.997,6.046,4.116,9.208,4.491c1.084,0.128,8.013,0.244,6.435-2.595
			c-12.906-23.215,3.456-45.676,18.609-62.946c6.928-7.896,14.417-14.581,24.795-17.343c9.378-2.497,19.406-1.814,28.986-1.332
			c58.849,2.962,117.717,4.169,176.633,2.841c29.855-0.673,59.689-1.964,89.496-3.768c29.474-1.784,58.94-3.885,88.467-4.574
			c29.614-0.691,58.918,0.906,88.415,3.371c14.976,1.252,29.979,2.42,45.01,2.698c12.655,0.234,25.671,0.191,38.091-2.544
			c11.007-2.424,21.828-6.898,29.409-15.543c1.692-1.93,3.274-4.247,5.431-5.704c2.346-1.585,4.84-1.276,7.502-0.838
			c3.353,0.552,7.697,2.172,11.495,4.345c17.936,10.264,28.244,31.646,23.785,51.911c-4.448,20.218-18.533,35.634-35.088,47.066
			c-1.516,1.047-2.957,2.199-4.463,3.261c-1.062,0.749-2.141,1.473-3.239,2.168c-0.641,0.405-1.288,0.799-1.94,1.186
			c0.987-0.587-1.197,0.671-1.64,0.911c-9.008,4.88-19.13,8.285-28.841,10.715c-17.63,4.412-36.447,6.623-54.764,7.776
			c-13.734,0.865-27.47,0.926-41.22,1.29c-14.899,0.394-29.781,1.245-44.659,2.121c-29.566,1.74-59.141,2.83-88.741,3.804
			c-58.597,1.928-117.248,3.255-175.871,1.707c-29.153-0.77-58.289-2.252-87.345-4.775c-14.626-1.27-29.23-2.794-43.8-4.606
			c-13.906-1.729-28.639-3.195-42.051-6.121c-9.231-2.014-17.539-8.747-22.465-17.076c-1.761-2.978-5.979-4.108-9.208-4.491
			C265.045,865.124,257.98,865.044,259.634,867.84z"/>
	</g>
	<g>
		<path d="M323.49,672.987c70.228,5.677,140.655,8.832,211.11,9.42c70.589,0.589,141.196-1.317,211.645-5.807
			c58.473-3.726,125.123-5.742,168.836-50.472c35.152-35.97,48.81-89.349,38.612-138.187
			c-11.619-55.643-49.407-102.724-92.738-137.781c-24.35-19.701-51.357-36.712-80.707-47.891
			c-31.167-11.872-64.237-16.848-97.463-17.846c-33.239-0.998-66.43,1.486-99.599,3.271c-32.57,1.752-65.284,2.085-97.698,6.02
			c-31.436,3.817-62.131,11.383-90.36,26.024c-26.147,13.561-49.336,32.153-70.321,52.69
			c-21.595,21.135-41.891,44.159-59.674,68.596c-18.257,25.087-33.787,52.688-40.787,83.155c-6.643,28.91-6.202,62.485,8.454,89.032
			c12.976,23.504,36.195,40.477,60.706,50.491c12.912,5.275,26.46,8.751,40.349,10.094c2.168,0.21,6.039-0.539,4.087-3.397
			c-1.981-2.901-7.074-4.057-10.283-4.367c-23.825-2.303-47.185-13.704-64.33-30.523c-20.095-19.712-28.002-47.618-27.427-75.289
			c1.292-62.074,41.226-114.271,81.093-158.3c19.018-21.004,39.472-40.923,62.567-57.439c24.102-17.236,50.703-29.717,79.534-36.678
			c30.703-7.413,62.457-9.171,93.903-10.548c31.82-1.393,63.614-3.529,95.44-4.731c31.245-1.18,62.859-0.907,93.619,5.303
			c29.392,5.934,56.56,18.368,81.493,34.862c45.375,30.016,86.361,72.495,106.203,123.852c9.161,23.711,13.516,49.096,11.015,74.471
			c-2.35,23.846-10.17,47.216-23.094,67.424c-13.421,20.985-32.753,38.167-55.402,48.61c-27.522,12.69-57.981,16.645-87.891,19.119
			c-67.338,5.569-135.033,8.032-202.589,8.512c-68.245,0.485-136.516-1.496-204.624-5.84c-16.635-1.061-33.26-2.269-49.874-3.612
			c-2.157-0.174-6.052,0.519-4.087,3.397C315.164,671.487,320.3,672.729,323.49,672.987L323.49,672.987z"/>
	</g>
	<g>
		<path d="M324.019,674.922c70.228,5.677,140.655,8.832,211.11,9.42c70.589,0.589,141.196-1.317,211.645-5.807
			c58.473-3.726,125.123-5.742,168.836-50.473c35.152-35.97,48.81-89.349,38.611-138.187
			c-11.619-55.643-49.407-102.724-92.738-137.781c-24.35-19.701-51.357-36.712-80.707-47.892
			c-31.166-11.872-64.237-16.848-97.463-17.846c-33.239-0.998-66.43,1.486-99.598,3.271c-32.571,1.752-65.284,2.084-97.698,6.02
			c-31.436,3.817-62.131,11.383-90.36,26.024c-26.147,13.561-49.336,32.152-70.321,52.69
			c-21.594,21.134-41.891,44.159-59.674,68.596c-18.256,25.087-33.787,52.688-40.787,83.155c-6.643,28.91-6.202,62.485,8.454,89.032
			c12.976,23.504,36.195,40.477,60.706,50.491c12.912,5.275,26.46,8.751,40.349,10.094c2.168,0.21,6.039-0.539,4.087-3.397
			c-1.981-2.901-7.074-4.057-10.283-4.367c-23.825-2.303-47.185-13.704-64.33-30.523c-20.094-19.712-28.002-47.618-27.426-75.289
			c1.292-62.074,41.226-114.271,81.093-158.3c19.018-21.004,39.472-40.924,62.567-57.44c24.102-17.236,50.703-29.717,79.534-36.678
			c30.703-7.413,62.457-9.171,93.903-10.548c31.82-1.393,63.614-3.529,95.44-4.731c31.245-1.18,62.859-0.907,93.619,5.303
			c29.392,5.934,56.56,18.368,81.493,34.862c45.375,30.016,86.361,72.495,106.203,123.852c9.161,23.711,13.516,49.096,11.015,74.471
			c-2.35,23.846-10.17,47.216-23.094,67.424c-13.422,20.985-32.753,38.167-55.402,48.61c-27.522,12.69-57.981,16.645-87.891,19.119
			c-67.338,5.569-135.033,8.032-202.589,8.512c-68.245,0.485-136.516-1.496-204.624-5.84c-16.635-1.061-33.26-2.269-49.875-3.612
			c-2.157-0.174-6.052,0.519-4.087,3.397C315.693,673.421,320.829,674.664,324.019,674.922L324.019,674.922z"/>
	</g>
	<g>
		<path d="M525.774,730.765c7.802,14.529,23.437,21.979,38.47,26.927c17.168,5.651,35.295,8.332,53.321,9.033
			c17.766,0.691,35.562-0.448,53.229-2.28c15.78-1.636,31.718-3.318,47.174-7.007c15.806-3.771,31.455-10.316,42.827-22.279
			c3.293-3.465-11.317-9.474-14.532-6.091c-19.137,20.132-48.406,23.494-74.553,26.543c-16.055,1.872-32.214,3.466-48.391,3.596
			c-8.155,0.065-16.32-0.232-24.44-1.005c-3.666-0.349-6.97-0.777-10.796-1.404c-1.962-0.321-3.918-0.676-5.867-1.065
			c-0.9-0.18-1.798-0.366-2.695-0.561c-0.448-0.097-0.897-0.197-1.345-0.297c-2.901-0.648,0.627,0.166-1.025-0.239
			c-4.279-1.05-8.487-2.326-12.668-3.713c1.389,0.461-1.074-0.4-1.571-0.592c-0.841-0.325-1.677-0.662-2.508-1.013
			c-0.833-0.351-1.655-0.722-2.48-1.092c-1.397-0.626-0.631-0.294-0.324-0.142c-0.461-0.228-0.918-0.466-1.373-0.707
			c-5.897-3.123-11.517-7.455-14.943-13.835c-1.645-3.063-5.699-4.434-8.939-5.005C531.363,728.365,524.238,727.903,525.774,730.765
			L525.774,730.765z"/>
	</g>
	<g>
		<path d="M283.31,754.934c-5.517,18.217,1.406,39.07,16.097,51.011c19.055,15.489,45.799,14.526,68.942,14.292
			c53.068-0.538,106.136-1.089,159.2-1.989c53.465-0.907,106.927-2.167,160.365-4.123c26.512-0.971,53.018-2.113,79.513-3.469
			c24.747-1.267,49.91-1.672,74.45-5.33c21.353-3.183,43.837-9.762,59.406-25.544c12.628-12.8,21.244-32.028,17.495-50.178
			c-0.904-4.379-2.409-8.504-4.614-12.396c-1.619-2.857-6.842-3.289-9.714-3.253c-1.386,0.018-7.635,0.6-6.042,3.411
			c8.93,15.76,5.049,34.95-4.625,49.432c-11.221,16.797-29.222,25.674-48.471,30.095c-21.945,5.04-45.109,5.148-67.494,6.359
			c-25.473,1.377-50.956,2.551-76.446,3.557c-51.188,2.021-102.4,3.369-153.617,4.345c-51.225,0.977-102.456,1.582-153.687,2.117
			c-12.703,0.133-25.406,0.297-38.109,0.386c-9.944,0.07-19.867,0.215-29.319-2.775c-17.641-5.58-28.973-22.965-29.094-41.214
			c-0.029-4.459,0.637-8.853,1.928-13.118C300.603,752.816,284.801,750.01,283.31,754.934L283.31,754.934z"/>
	</g>
	<g>
		<path d="M250.346,633.179c56.828,16.537,116.214,23.828,175.361,21.382c16.731-0.692,33.439-2.162,50.038-4.371
			c1.661-0.221,7.168-1.432,5.54-4.178c-1.575-2.655-7.669-2.262-10.058-1.944c-54.43,7.246-109.943,5.64-164.498-4.974
			c-15.17-2.951-30.213-6.56-45.052-10.878c-3.626-1.055-7.965-1.23-11.479,0.372C247.569,629.785,247.145,632.247,250.346,633.179
			L250.346,633.179z"/>
	</g>
	<g>
		<path d="M241.662,602.872c27.019,8.099,54.767,13.55,82.881,15.951c1.654,0.141,7.309,0.488,6.423-2.625
			c-0.825-2.898-6.861-4.245-9.229-4.447c-12.688-1.084-25.804-2.827-37.597-5.072c-6.255-1.191-12.481-2.537-18.669-4.038
			c-6.327-1.534-12.581-3.225-18.198-4.909c-2.552-0.765-8.044-2.419-10.244-0.024C234.878,600.048,240.242,602.446,241.662,602.872
			L241.662,602.872z"/>
	</g>
	<g>
		<path d="M930.204,771.672c1.063,10.139-3.995,20.14-11.014,27.144c-7.624,7.609-17.593,12.061-27.65,15.484
			c-22.753,7.746-46.641,12.523-70.524,14.987c-13.676,1.411-27.404,1.944-41.148,1.664c-2.017-0.041-6.201,0.812-3.936,3.571
			c2.225,2.71,7.154,3.849,10.463,3.917c26.005,0.529,52.082-1.695,77.583-6.843c12.772-2.578,25.463-5.762,37.859-9.787
			c10.814-3.511,21.797-8.085,30.363-15.765c9.097-8.157,14.893-19.771,13.599-32.115c-0.118-1.125-2.381-2.418-3.125-2.816
			c-1.797-0.962-3.966-1.602-5.975-1.888C934.655,768.937,929.875,768.533,930.204,771.672L930.204,771.672z"/>
	</g>
	<g>
		<path d="M746.08,864.214c27.492,1.419,55.009,1.525,82.504,0.093c2.006-0.104,7.992-0.227,8.114-3.267
			c0.114-2.848-6.565-3.311-8.129-3.229c-13.214,0.688-26.444,1.05-39.676,1.062c-6.45,0.006-12.901-0.07-19.349-0.228
			c-6.269-0.153-13.486-0.413-19.16-0.706c-2.669-0.138-8.372-0.557-9.985,2.292C738.839,862.986,744.594,864.138,746.08,864.214
			L746.08,864.214z"/>
	</g>
	<g>
		<path d="M401.075,405.154c-11.557,4.976-23.573,9.421-34.714,15.289c-8.262,4.352-20.041,13.711-16.686,24.591
			c2.016,6.539,9.383,9.966,15.491,11.501c5.612,1.411,11.394,1.212,17.006-0.064c10.079-2.292,21.618-7.157,27.366-16.241
			c5.175-8.18,7.089-20.059,5.328-29.528c-0.853-4.585-16.236-8.071-15.376-3.446c1.383,7.436-0.068,15.712-2.82,22.682
			c-1.4,3.544-3.21,6.476-6.08,8.998c-3.548,3.118-7.69,5.58-12.087,7.293c-3.994,1.555-8.501,2.961-12.51,3.192
			c0.181-0.01-2.014,0.037-1.158,0.055c0.695,0.015-0.661-0.054-0.802-0.066c-1.188-0.102,1.57,0.553-0.303-0.044
			c0.597,0.19,1.119,0.385,1.712,0.614c0.624,0.242,0.962,0.132,0.139,0.061c0.2,0.017,0.457,0.269,0.588,0.448
			c-0.649-0.891-1.078-1.66-1.313-2.768c-0.916-4.327,1.691-9.17,4.508-12.3c2.969-3.299,6.706-5.809,10.587-7.909
			c4.741-2.564,9.771-4.565,14.715-6.694c6.204-2.671,12.409-5.343,18.613-8.014c3.151-1.357,0.652-3.897-1.315-5.149
			C409.446,406.053,404.164,403.824,401.075,405.154L401.075,405.154z"/>
	</g>
	<g>
		<path d="M723.592,451.805c-8.364,0.986-20.826,3.23-24.159,12.406c-3.193,8.789,5.817,14.892,13.286,16.356
			c9.666,1.894,21.438,1.533,30.528-2.462c7.101-3.121,14.35-10.603,11.953-19.085c-3.07-10.868-17.192-11.3-25.832-7.866
			c-1.885,0.749-5.35,3.222-2.187,4.843c3.147,1.613,8.065,0.653,11.158-0.576c-0.995,0.335-2.021,0.538-3.079,0.61
			c-1.897-0.217-2.396-0.236-1.497-0.059c0.209,0.137,0.733,0.197,1.322,0.521c0.997,0.548,1.831,1.31,2.554,2.189
			c1.786,2.172,2.305,5.225,1.656,7.939c-0.636,2.659-2.235,5.273-4.475,6.854c-0.546,0.385-0.668,0.418-1.295,0.682
			c0.586-0.158,0.431-0.112-0.464,0.138c0.649-0.11,0.684-0.114,0.107-0.013c-0.406,0.076-0.814,0.141-1.224,0.193
			c0.776-0.064,0.666-0.057-0.331,0.019c-0.834,0.04-1.666,0.07-2.501,0.092c-1.907,0.048-5.857,0.011-8.523-1.135
			c-2.672-1.148-4.993-3.491-5.597-6.4c-0.591-2.844,0.66-5.711,3.017-7.395c0.76-0.543,0.983-0.569,1.862-0.771
			c-1.277,0.293,1.037-0.18,1.286-0.218c1.145-0.177,2.297-0.309,3.447-0.444c1.979-0.233,7.85-1.568,7.518-4.471
			C731.785,450.824,725.151,451.621,723.592,451.805L723.592,451.805z"/>
	</g>
	<g>
		<path d="M498.497,358.88c-4.986,8.914-10.329,18.414-11.011,28.829c-0.582,8.886,2.397,18.595,10.052,23.789
			c8.63,5.855,22.28,7.78,31.578,2.363c8.296-4.834,10.017-15.126,7.896-23.778c-1.454-5.93-4.216-11.372-6.845-16.846
			c-2.869-5.974-5.739-11.948-8.608-17.922c-2.025-4.216-17.771-3.665-15.748,0.548c4.2,8.744,8.694,17.407,12.545,26.311
			c3.019,6.979,5.325,15.762,1.24,22.852c-0.805,1.397-1.856,2.832-3.137,3.834c-0.568,0.444-1.305,0.868-1.962,1.154
			c0.22-0.096-1.913,0.601-0.78,0.251c-0.253,0.078-1.467,0.185-0.026,0.025c-0.237,0.026-1.199-0.128-0.261,0.009
			c0.218,0.032,1.923,0.162,0.874,0.055c-0.834-0.085,0.092,0.061,0.247,0.102c-0.434-0.114-0.884-0.251-1.307-0.408
			c0.305,0.114,0.844,0.435-0.303-0.158c-0.697-0.36-1.165-0.599-1.734-1.002c-6.074-4.312-7.93-12.537-7.549-19.574
			c0.544-10.034,5.534-18.963,10.328-27.535c1.54-2.753-3.536-4.1-5.357-4.41c-2.059-0.351-4.194-0.481-6.265-0.143
			C501.201,357.414,499.127,357.753,498.497,358.88L498.497,358.88z"/>
	</g>
	<g>
		<path d="M653.89,422.875c-21.957,0.036-48.372,0.85-64.932,17.5c-1.837,1.847-3.627,4.09-3.866,6.775
			c-0.29,3.258,2.509,5.117,5.334,5.862c2.651,0.699,5.424,0.641,8.144,0.664c3.281,0.027,6.563,0.026,9.843-0.036
			c11.515-0.219,23.269-1.384,34.213-5.154c6.428-2.214,12.452-5.201,17.816-9.409c3.518-2.76,9.313-9.457,4.272-13.574
			c-2.636-2.152-7.229-1.411-10.231-0.537c-1.098,0.32-7.424,2.849-4.91,4.903c2.919,2.383-0.908,6.308-2.908,7.886
			c-3.166,2.499-5.937,3.907-9.443,5.283c-0.151,0.059-1.612,0.603-0.847,0.331c0.766-0.273-0.716,0.231-0.871,0.28
			c-0.97,0.308-1.948,0.591-2.932,0.851c-0.494,0.131-0.991,0.25-1.487,0.376c-1.281,0.324,1.161-0.194-0.147,0.023
			c-1.146,0.191-2.282,0.448-3.43,0.635c-1.028,0.168-2.058,0.313-3.09,0.45c1.378-0.183-1.241,0.129-1.757,0.176
			c-2.362,0.216-4.73,0.361-7.1,0.457c-4.811,0.194-7.321,0.17-11.816,0.116c-0.677-0.008-1.843,0.175-2.509-0.07
			c0.976,0.358,0.003-0.253-0.035-0.49c-0.33-2.058,0.728-3.532,2.135-4.952c1.212-1.222,2.513-2.374,3.91-3.379
			c0.783-0.564,1.602-1.085,2.427-1.584c0.413-0.25,0.832-0.489,1.252-0.727c0.808-0.458,0.219-0.144,0.716-0.391
			c0.868-0.431,1.758-0.821,2.652-1.191c0.45-0.186,0.904-0.36,1.357-0.539c1.155-0.458-0.967,0.311,0.214-0.089
			c0.932-0.316,1.874-0.603,2.821-0.871c0.477-0.135,0.954-0.263,1.434-0.387c0.614-0.158,1.604-0.38,0.435-0.125
			c2.346-0.511,4.709-0.839,7.076-1.225c1.302-0.212-1.189,0.115,0.127-0.023c0.635-0.067,1.269-0.135,1.904-0.195
			c1.274-0.119,2.55-0.219,3.827-0.302c2.299-0.15,4.601-0.245,6.904-0.305c1.271-0.033,2.542-0.056,3.814-0.071
			c0.505-0.006,1.011-0.01,1.516-0.014c1.569-0.015-0.663-0.002,1.043-0.005c3.482-0.006,8.16-0.355,10.751-3.038
			C659.96,424.23,655.952,422.872,653.89,422.875L653.89,422.875z"/>
	</g>
	<g>
		<path d="M470.185,464.871c-6.123,3.474-5.784,11.816-2.307,17.05c5.659,8.52,19.074,11.306,28.472,8.919
			c7.523-1.911,16.095-7.907,16.126-16.408c0.034-9.266-8.217-15.987-16.375-18.629c-10.487-3.396-21.595-1.324-28.36,7.734
			c-2.026,2.712,12.195,9.443,15.407,5.142c1.999-2.677,5.047-4.888,8.23-5.903c0.674-0.215,1.402-0.423,2.079-0.52
			c0.179-0.026,2.068-0.128,1.118-0.091c1.566-0.06-0.713-0.322-1.316-0.523c-1.689-0.564,0.582,0.435-0.332-0.237
			c4.925,3.623,5.347,11.509,0.965,16.096c-2.477,2.593-5.625,4.585-9.071,5.587c-0.77,0.224-1.511,0.405-2.301,0.499
			c-0.173,0.021-2.043,0.067-1.25,0.066c-1.659,0.002,0.532,0.106,1.1,0.365c0.335,0.125,0.639,0.303,0.912,0.536
			c-0.456-0.414-0.563-0.504-0.321-0.269c-0.948-1.604-2.227-3.947-2.142-6.439c0.092-2.731,1.292-5.027,3.675-6.379
			c2.844-1.613-3.079-5.128-4.115-5.586C477.491,464.605,473.195,463.163,470.185,464.871L470.185,464.871z"/>
	</g>
	<g>
		<path d="M751.076,359.413c3.246,6.288,6.491,12.577,9.737,18.865c2.665,5.163,5.203,10.436,8.324,15.345
			c3.209,5.048,7.201,9.541,12.17,12.913c5.91,4.011,13.792,6.982,21.027,6.247c5.655-0.575,10.079-4.032,11.017-9.77
			c0.801-4.902-0.327-9.866-1.914-14.485c-3.834-11.158-10.863-21.68-21.759-26.881c-10.893-5.199-25.206-7.399-37.016-4.336
			c-3.518,0.912-0.272,4.139,1.315,5.149c2.918,1.858,7.388,3.409,10.889,2.501c1.807-0.469,2.444-0.549,3.965-0.671
			c0.959-0.077,1.921-0.119,2.884-0.132c0.443-0.006,0.886-0.006,1.328,0.001c-0.896-0.015,0.334,0.018,0.651,0.037
			c1.033,0.062,2.065,0.154,3.093,0.275c0.46,0.054,0.917,0.12,1.376,0.181c-0.307-0.041-1.346-0.265,0.109,0.02
			c0.897,0.176,1.785,0.378,2.677,0.578c1.519,0.339,0.154,0.025-0.137-0.064c0.627,0.19,1.242,0.407,1.866,0.607
			c1.45,0.466,0.028-0.007-0.234-0.123c0.371,0.164,0.743,0.347,1.119,0.502c1.275,0.527,0.095,0.031-0.158-0.12
			c0.404,0.242,0.801,0.491,1.198,0.744c0.833,0.532-0.802-0.693-0.098-0.049c0.362,0.331,0.741,0.643,1.102,0.976
			c0.838,0.776,1.596,1.587,2.329,2.465c2.969,3.556,5.259,7.564,6.992,11.85c2.372,5.865,6.34,16.998-0.184,21.743
			c-0.742,0.54-1.515,0.845-2.421,1.016c-0.162,0.031,1.029,0.588-0.479-0.07c0.311,0.136,0.768,0.245,1.104,0.362
			c-1.253-0.436-0.607-0.251-0.228-0.047c-1.161-0.624-1.568-0.946-2.175-1.449c-3.159-2.617-5.545-6.01-7.676-9.486
			c-6.125-9.994-11.044-20.839-16.417-31.249c-1.608-3.116-5.437-4.661-8.714-5.386C756.819,357.27,749.588,356.529,751.076,359.413
			L751.076,359.413z"/>
	</g>
	<g>
		<path d="M678.739,324.615c-8.364,0.986-20.826,3.23-24.159,12.406c-3.193,8.789,5.817,14.892,13.286,16.356
			c9.666,1.894,21.438,1.533,30.528-2.462c7.101-3.121,14.35-10.603,11.953-19.085c-3.07-10.868-17.192-11.3-25.832-7.866
			c-1.885,0.749-5.35,3.223-2.187,4.844c3.147,1.613,8.065,0.653,11.158-0.576c-0.995,0.335-2.021,0.538-3.079,0.61
			c-1.897-0.216-2.396-0.236-1.497-0.059c0.21,0.137,0.733,0.197,1.322,0.521c0.997,0.548,1.831,1.31,2.554,2.189
			c1.786,2.172,2.305,5.225,1.655,7.939c-0.636,2.659-2.235,5.273-4.475,6.853c-0.546,0.385-0.669,0.418-1.295,0.682
			c0.586-0.158,0.432-0.112-0.464,0.138c0.649-0.11,0.685-0.115,0.107-0.013c-0.406,0.076-0.814,0.14-1.224,0.193
			c0.776-0.064,0.666-0.057-0.331,0.019c-0.834,0.04-1.666,0.071-2.501,0.092c-1.907,0.049-5.857,0.011-8.523-1.135
			c-2.672-1.148-4.993-3.491-5.597-6.4c-0.591-2.844,0.66-5.711,3.017-7.395c0.76-0.543,0.983-0.569,1.862-0.771
			c-1.277,0.293,1.037-0.18,1.286-0.218c1.145-0.177,2.297-0.308,3.447-0.444c1.979-0.233,7.85-1.568,7.518-4.471
			C686.932,323.635,680.297,324.432,678.739,324.615L678.739,324.615z"/>
	</g>
	<g>
		<path d="M323.417,670.658c70.228,5.677,140.655,8.832,211.11,9.42c70.589,0.589,141.196-1.317,211.645-5.807
			c58.473-3.726,125.123-5.742,168.836-50.473c35.152-35.97,48.809-89.349,38.611-138.187
			c-11.619-55.643-49.407-102.724-92.738-137.781c-24.35-19.701-51.357-36.712-80.707-47.892
			c-31.167-11.872-64.237-16.848-97.463-17.845c-33.239-0.998-66.43,1.486-99.598,3.271c-32.57,1.752-65.284,2.085-97.698,6.02
			c-31.436,3.817-62.131,11.383-90.36,26.024c-26.147,13.561-49.337,32.152-70.321,52.69
			c-21.594,21.134-41.891,44.159-59.674,68.596c-18.257,25.087-33.787,52.688-40.787,83.155c-6.643,28.91-6.202,62.485,8.454,89.032
			c12.976,23.504,36.195,40.477,60.706,50.491c12.912,5.275,26.46,8.751,40.349,10.094c2.168,0.21,6.039-0.539,4.087-3.397
			c-1.981-2.901-7.074-4.057-10.283-4.367c-23.825-2.303-47.185-13.704-64.33-30.523c-20.094-19.712-28.002-47.618-27.426-75.289
			c1.292-62.074,41.226-114.271,81.093-158.3c19.018-21.004,39.472-40.924,62.567-57.439c24.102-17.236,50.703-29.717,79.534-36.678
			c30.702-7.413,62.457-9.171,93.902-10.548c31.82-1.393,63.614-3.529,95.44-4.731c31.245-1.18,62.859-0.907,93.619,5.303
			c29.392,5.934,56.56,18.368,81.493,34.862c45.375,30.016,86.361,72.495,106.203,123.852c9.161,23.711,13.516,49.096,11.015,74.471
			c-2.35,23.846-10.17,47.216-23.094,67.424c-13.422,20.985-32.753,38.167-55.402,48.61c-27.522,12.69-57.981,16.645-87.891,19.119
			c-67.338,5.569-135.033,8.032-202.589,8.512c-68.245,0.485-136.516-1.496-204.624-5.84c-16.635-1.061-33.26-2.269-49.875-3.612
			c-2.157-0.174-6.052,0.519-4.087,3.397C315.092,669.157,320.228,670.4,323.417,670.658L323.417,670.658z"/>
	</g>
	<g>
		<path d="M918.182,679.98c-2.024,23.384-24.603,39.339-44.067,48.581c-26.855,12.752-56.673,14.542-85.915,11.789
			c-1.247-0.117-2.493-0.242-3.738-0.374c-0.467-0.049-0.933-0.104-1.4-0.151c-2.73-0.276,0.68,0.246-0.117,0.001
			c-0.452-0.139-2.416-0.308-1.182-0.222c1.043,0.073,0.346,0.096-0.004-0.017c-0.455-0.147-0.915-0.277-1.369-0.426
			c-0.729-0.239-2.071-0.804-0.547-0.164c-0.789-0.331-1.587-0.637-2.371-0.979c-0.813-0.355-1.611-0.736-2.414-1.111
			c-0.243-0.113-1.294-0.653-0.065-0.017c-0.405-0.209-0.807-0.424-1.207-0.641c-1.604-0.871-3.144-1.83-4.693-2.792
			c-0.002-0.001-0.926-0.609-0.406-0.258c0.537,0.363-0.797-0.569-0.913-0.655c-0.687-0.506-1.363-1.028-2.023-1.57
			c-1.9-1.562-3.779-3.336-4.738-5.274c-1.534-3.101-5.659-4.541-8.849-5.162c-1.013-0.197-8.05-0.802-6.61,2.11
			c2.999,6.062,8.763,10.307,14.32,13.884c6.187,3.983,13.118,7.305,20.204,9.329c8.638,2.468,17.992,2.779,26.921,3.217
			c9.627,0.472,19.311,0.466,28.923-0.297c27.598-2.189,55.501-11.273,76.959-29.287c10.474-8.793,19.582-20.598,20.797-34.64
			C934.12,679.73,918.516,676.131,918.182,679.98L918.182,679.98z"/>
	</g>
	<g>
		<path d="M271.117,726.138c-2.631,7.483,0.787,15.318,5.973,20.788c6.214,6.555,15.484,9.468,24.037,11.44
			c9.592,2.211,19.452,3.488,29.204,4.759c9.6,1.251,19.241,2.193,28.902,2.822c19.875,1.293,39.85,1.364,59.728,0.11
			c19.5-1.231,39.193-3.337,58.328-7.381c9.502-2.008,18.997-4.838,26.474-11.302c6.103-5.276,11.926-13.253,12.477-21.559
			c0.194-2.93-5.912-3.762-7.839-3.88c-1.791-0.11-8.156-0.36-8.352,2.597c-0.449,6.775-4.721,12.884-9.338,17.6
			c-5.108,5.217-11.642,7.923-18.622,9.706c-7.916,2.022-16.152,3.116-24.233,4.261c-8.617,1.221-17.362,2.221-25.944,2.892
			c-35.461,2.775-70.636,1.325-105.202-4.488c-8.178-1.375-15.924-2.025-22.649-7.249c-5.96-4.63-9.332-12.494-6.752-19.834
			C288.517,723.984,272.866,721.165,271.117,726.138L271.117,726.138z"/>
	</g>
	<g>
		<path d="M255.451,637.999c-10.763,18.768-30.017,32.783-51.369,36.598c-4.633,0.828-10.294,1.448-13.71,5.092
			c-3.335,3.557-3.016,8.253-0.448,12.109c6.671,10.019,20.199,13.071,31.278,14.896c15.383,2.534,31.088,2.323,46.317-1.112
			c-4.368-1.693-8.735-3.386-13.103-5.08c-2.545,7.319-1.056,15.375,3.414,21.626c5.272,7.373,14.338,11.138,23.153,12.015
			c8.129,0.809,17.003-0.813,23.203-6.479c1.364-1.246,2.467-2.707,3.6-4.156c1.162-1.485,3.046-2.944,4.013-4.486
			c0.997-1.589,3.873,0.149-1.807-1.05c-2.666-0.563-1.996-0.9-1.856-0.419c0.226,0.776,2.063,1.966,2.675,2.626
			c4.854,5.233,9.28,9.436,16.605,10.824c4.183,0.792,8.956,0.732,12.552-1.83c3.068-2.186,4.438-5.707,6.642-8.634
			c4.083-5.423,9.836-6.323,15.712-3.519c8.004,3.82,14.598,10.121,22.655,13.952c9.206,4.378,20.275,6.504,30.001,2.524
			c7.328-2.999,13.149-9.516,11.119-17.78c-0.438,0.761-0.875,1.522-1.313,2.283c3.35-1.258,7.518-2.378,11.107-1.424
			c2.644,0.703,7.934,2.178,10.243-0.181c10.125-10.345,24.882-9.517,38.152-7.71c2.216,0.302,5.255,0.274,7.169,1.523
			c2.719,1.774,3.894,6.215,5.276,8.959c3.23,6.412,8.572,10.481,15.31,12.797c14.879,5.114,29.227,0.669,42.962-5.361
			c5.579-2.45,14.385-7.211,20.479-5.503c3.517,0.986,6.835,3.941,10.051,5.641c3.713,1.963,7.677,3.33,11.816,4.053
			c14.588,2.551,31.484-3.619,35.859-18.958c-5.264-0.804-10.528-1.608-15.793-2.412c3.396,8.638,14.77,11.298,23.081,11.363
			c9.913,0.077,17.024-5.623,26.016-8.654c7.151-2.41,14.371,2.599,20.933,5.057c8.65,3.241,18.718,5.207,27.522,1.458
			c-4.827-1.565-9.653-3.13-14.48-4.695c-0.556,12.664,13.811,17.694,24.164,19.024c5.955,0.765,12.089,0.473,17.878-1.153
			c6.855-1.926,13.023-5.857,19.568-8.594c3.139-1.313,6.594-2.734,10.041-2.925c0.568-0.031,1.158-0.075,1.719,0.042
			c-0.44-0.091-0.993-0.35-0.047,0.168c1.494,0.817,2.936,1.703,4.387,2.596c6.508,4.005,13.978,7.745,21.874,6.674
			c7.484-1.015,8.668-6.296,10.216-12.634c1.704-6.978,5.421-5.6,10.961-4.277c8.023,1.916,15.766,2.399,23.809,0.234
			c8.369-2.253,16.552-5.35,24.77-8.098c16.98-5.679,33.97-11.331,50.937-17.048c16.928-5.704,33.807-11.552,50.546-17.793
			c7.426-2.769,15.358-5.15,22.323-8.977c5.571-3.062,10.622-7.698,11.17-14.41c1.442-17.684-18.888-26.047-32.986-28.65
			c-19.818-3.659-40.388-4.598-60.503-4.522c-2.335,0.009-5.773,1.022-3.76,3.756c2.01,2.729,7.598,3.421,10.639,3.41
			c15.723-0.059,31.416,0.91,47.011,2.927c5.658,0.732,11.844,1.472,16.547,4.994c4.428,3.316,7.593,9.152,7.152,14.769
			c-0.489,6.24-5.152,10.196-10.467,12.742c-6.486,3.107-13.453,5.378-20.185,7.888c-14.808,5.521-29.724,10.74-44.69,15.814
			c-14.715,4.989-29.461,9.887-44.196,14.815c-7.657,2.561-15.315,5.121-22.972,7.682c-5.863,1.961-13.202,5.7-19.435,5.074
			c-9.349-0.938-25.738-8.569-31.508,3.256c-1.228,2.518-1.35,5.33-2.097,7.99c-0.399,1.423-1.039,2.187-1.759,3.374
			c0.435-0.717-0.919,0.926-0.944,0.748c-0.078-0.543,6.845,1.99,2.703-0.137c-5.696-2.924-10.511-6.671-16.833-8.323
			c-7.96-2.08-15.994-1.365-23.712,1.314c-7.09,2.461-13.465,6.556-20.485,9.146c-2.082,0.768-4.276,1.205-6.49,1.332
			c-1.052,0.061-1.807,0.039-2.746-0.048c-1.005-0.093-1.077-0.142-1.549-0.277c-0.714-0.205-2.377-1.076-3.395-2.384
			c-1.397-1.795-1.852-3.97-1.754-6.202c0.218-4.968-11.41-6.003-14.48-4.695c-4.74,2.018-8.703-0.529-13.404-2.466
			c-7.549-3.111-15.234-5.829-23.492-5.978c-8.361-0.151-15.159,3.523-22.495,6.978c-2.631,1.239-5.095,2.12-7.914,2.527
			c-2.25,0.325,0.749-0.153,0.522,0.268c-0.187,0.347-1.956-2.797-2.024-2.971c-1.356-3.449-14.46-7.084-15.793-2.412
			c-1.667,5.844-5.739,10.772-11.189,13.521c-5.415,2.731-8.235,2.779-12.848,0.014c-8.079-4.844-16.155-8.309-25.761-8.321
			c-8.492-0.01-16.572,2.894-24.265,6.226c-6.452,2.795-12.758,5.991-19.819,6.898c-4.705,0.604-7.119,0.231-9.928-4.193
			c-1.721-2.71-2.68-5.836-4.348-8.579c-2.11-3.471-4.952-6.021-8.613-7.8c-7.307-3.552-15.947-4.339-23.936-5.195
			c-15.472-1.657-33.793-1.49-45.447,10.417c3.414-0.06,6.828-0.121,10.243-0.181c-9.938-2.642-19.926-3.057-29.673,0.601
			c-1.078,0.405-1.581,1.189-1.313,2.283c1.568,6.383-3.801,11.708-9.462,13.583c-2.141,0.709-2.936,0.89-4.8,0.235
			c-3.556-1.249-6.782-3.534-9.881-5.622c-12.855-8.661-27.789-17.466-44.014-13.401c-3.12,0.782-6.116,2.132-8.528,4.304
			c-2.68,2.414-4.014,5.807-6.232,8.581c-0.701,0.877-2.328,1.684-2.841,2.487c-1.502,2.35,5.523-0.591,6.294,1.183
			c0.05,0.115-0.883-0.604-0.963-0.688c-1.789-1.869-3.552-3.768-5.34-5.642c-4.746-4.975-10.923-7.985-17.876-8.126
			c-3.656-0.074-7.069,0.685-9.951,3.03c-2.721,2.215-4.392,5.398-6.828,7.883c-3.851,3.928-10.348,7.324-14.955,3.086
			c-5.8-5.334-7.232-14.058-4.72-21.284c0.654-1.88-3.283-3.535-4.281-3.926c-2.611-1.023-6.021-1.786-8.822-1.154
			c-14.182,3.199-29.112,3.621-43.242-0.164c-4.178-1.119-9.052-4.176-10.064-8.703c-1.387-6.207,5.434-7.541,9.891-8.329
			c24.218-4.282,45.313-18.887,57.551-40.227C273.044,638.362,258.118,633.347,255.451,637.999L255.451,637.999z"/>
	</g>
</g>
</svg>
